<svg height="420px" viewBox="0 0 560 420" width="560px" xmlns="http://www.w3.org/2000/svg" xmlns:xlink="http://www.w3.org/1999/xlink">

<title>Gnuplot</title>
<desc>Produced by GNUPLOT 5.0 patchlevel 3 </desc>

<g id="gnuplot_canvas">

<rect fill="none" height="420" width="560" x="0" y="0"/>
<defs>

	<circle id="gpDot" r="0.5" stroke-width="0.5"/>
	<path d="M-1,0 h2 M0,-1 v2" id="gpPt0" stroke="currentColor" stroke-width="0.333"/>
	<path d="M-1,-1 L1,1 M1,-1 L-1,1" id="gpPt1" stroke="currentColor" stroke-width="0.333"/>
	<path d="M-1,0 L1,0 M0,-1 L0,1 M-1,-1 L1,1 M-1,1 L1,-1" id="gpPt2" stroke="currentColor" stroke-width="0.333"/>
	<rect height="2" id="gpPt3" stroke="currentColor" stroke-width="0.333" width="2" x="-1" y="-1"/>
	<rect fill="currentColor" height="2" id="gpPt4" stroke="currentColor" stroke-width="0.333" width="2" x="-1" y="-1"/>
	<circle cx="0" cy="0" id="gpPt5" r="1" stroke="currentColor" stroke-width="0.333"/>
	<use fill="currentColor" id="gpPt6" stroke="none" xlink:href="#gpPt5"/>
	<path d="M0,-1.33 L-1.33,0.67 L1.33,0.67 z" id="gpPt7" stroke="currentColor" stroke-width="0.333"/>
	<use fill="currentColor" id="gpPt8" stroke="none" xlink:href="#gpPt7"/>
	<use id="gpPt9" stroke="currentColor" transform="rotate(180)" xlink:href="#gpPt7"/>
	<use fill="currentColor" id="gpPt10" stroke="none" xlink:href="#gpPt9"/>
	<use id="gpPt11" stroke="currentColor" transform="rotate(45)" xlink:href="#gpPt3"/>
	<use fill="currentColor" id="gpPt12" stroke="none" xlink:href="#gpPt11"/>
	<path d="M0,1.330 L1.265,0.411 L0.782,-1.067 L-0.782,-1.076 L-1.265,0.411 z" id="gpPt13" stroke="currentColor" stroke-width="0.333"/>
	<use fill="currentColor" id="gpPt14" stroke="none" xlink:href="#gpPt13"/>
	<filter filterUnits="objectBoundingBox" height="1" id="textbox" width="1" x="0" y="0">
	  <feFlood flood-color="white" flood-opacity="1" result="bgnd"/>
	  <feComposite in="SourceGraphic" in2="bgnd" operator="atop"/>
	</filter>
	<filter filterUnits="objectBoundingBox" height="1" id="greybox" width="1" x="0" y="0">
	  <feFlood flood-color="lightgrey" flood-opacity="1" result="grey"/>
	  <feComposite in="SourceGraphic" in2="grey" operator="atop"/>
	</filter>
</defs>
<g color="white" fill="none" stroke="currentColor" stroke-linecap="butt" stroke-linejoin="miter" stroke-width="1.00">
</g>
<g color="black" fill="none" stroke="currentColor" stroke-linecap="butt" stroke-linejoin="miter" stroke-width="1.00">
	<g shape-rendering="crispEdges" stroke="none">
		<polygon fill="rgb(255, 255, 255)" points="36.4,396.0 543.0,396.0 543.0,11.4 36.4,11.4 "/>
	</g>
</g>
<g color="black" fill="none" stroke="rgb(255, 255, 255)" stroke-linecap="butt" stroke-linejoin="miter" stroke-width="0.50">
</g>
<g color="black" fill="none" stroke="currentColor" stroke-linecap="butt" stroke-linejoin="miter" stroke-width="0.50">
	<path d="M36.4,396.0 L44.8,396.0 M543.1,396.0 L534.7,396.0  " stroke="black"/>	<g fill="rgb(0,0,0)" font-family="{}" font-size="10.00" stroke="none" text-anchor="end" transform="translate(30.8,399.7)">
		<text><tspan font-family="{}">-1</tspan></text>
	</g>
</g>
<g color="black" fill="none" stroke="currentColor" stroke-linecap="butt" stroke-linejoin="miter" stroke-width="0.50">
	<path d="M36.4,299.8 L44.8,299.8 M543.1,299.8 L534.7,299.8  " stroke="black"/>	<g fill="rgb(0,0,0)" font-family="{}" font-size="10.00" stroke="none" text-anchor="end" transform="translate(30.8,303.5)">
		<text><tspan font-family="{}">-0.5</tspan></text>
	</g>
</g>
<g color="black" fill="none" stroke="currentColor" stroke-linecap="butt" stroke-linejoin="miter" stroke-width="0.50">
	<path d="M36.4,203.6 L44.8,203.6 M543.1,203.6 L534.7,203.6  " stroke="black"/>	<g fill="rgb(0,0,0)" font-family="{}" font-size="10.00" stroke="none" text-anchor="end" transform="translate(30.8,207.3)">
		<text><tspan font-family="{}">0</tspan></text>
	</g>
</g>
<g color="black" fill="none" stroke="currentColor" stroke-linecap="butt" stroke-linejoin="miter" stroke-width="0.50">
	<path d="M36.4,107.5 L44.8,107.5 M543.1,107.5 L534.7,107.5  " stroke="black"/>	<g fill="rgb(0,0,0)" font-family="{}" font-size="10.00" stroke="none" text-anchor="end" transform="translate(30.8,111.2)">
		<text><tspan font-family="{}">0.5</tspan></text>
	</g>
</g>
<g color="black" fill="none" stroke="currentColor" stroke-linecap="butt" stroke-linejoin="miter" stroke-width="0.50">
	<path d="M36.4,11.3 L44.8,11.3 M543.1,11.3 L534.7,11.3  " stroke="black"/>	<g fill="rgb(0,0,0)" font-family="{}" font-size="10.00" stroke="none" text-anchor="end" transform="translate(30.8,15.0)">
		<text><tspan font-family="{}">1</tspan></text>
	</g>
</g>
<g color="black" fill="none" stroke="currentColor" stroke-linecap="butt" stroke-linejoin="miter" stroke-width="0.50">
	<path d="M36.4,396.0 L36.4,387.6 M36.4,11.3 L36.4,19.7  " stroke="black"/>	<g fill="rgb(0,0,0)" font-family="{}" font-size="10.00" stroke="none" text-anchor="middle" transform="translate(36.4,411.7)">
		<text><tspan font-family="{}">-1</tspan></text>
	</g>
</g>
<g color="black" fill="none" stroke="currentColor" stroke-linecap="butt" stroke-linejoin="miter" stroke-width="0.50">
	<path d="M163.1,396.0 L163.1,387.6 M163.1,11.3 L163.1,19.7  " stroke="black"/>	<g fill="rgb(0,0,0)" font-family="{}" font-size="10.00" stroke="none" text-anchor="middle" transform="translate(163.1,411.7)">
		<text><tspan font-family="{}">-0.5</tspan></text>
	</g>
</g>
<g color="black" fill="none" stroke="currentColor" stroke-linecap="butt" stroke-linejoin="miter" stroke-width="0.50">
	<path d="M289.8,396.0 L289.8,387.6 M289.8,11.3 L289.8,19.7  " stroke="black"/>	<g fill="rgb(0,0,0)" font-family="{}" font-size="10.00" stroke="none" text-anchor="middle" transform="translate(289.8,411.7)">
		<text><tspan font-family="{}">0</tspan></text>
	</g>
</g>
<g color="black" fill="none" stroke="currentColor" stroke-linecap="butt" stroke-linejoin="miter" stroke-width="0.50">
	<path d="M416.4,396.0 L416.4,387.6 M416.4,11.3 L416.4,19.7  " stroke="black"/>	<g fill="rgb(0,0,0)" font-family="{}" font-size="10.00" stroke="none" text-anchor="middle" transform="translate(416.4,411.7)">
		<text><tspan font-family="{}">0.5</tspan></text>
	</g>
</g>
<g color="black" fill="none" stroke="currentColor" stroke-linecap="butt" stroke-linejoin="miter" stroke-width="0.50">
	<path d="M543.1,396.0 L543.1,387.6 M543.1,11.3 L543.1,19.7  " stroke="black"/>	<g fill="rgb(0,0,0)" font-family="{}" font-size="10.00" stroke="none" text-anchor="middle" transform="translate(543.1,411.7)">
		<text><tspan font-family="{}">1</tspan></text>
	</g>
</g>
<g color="black" fill="none" stroke="currentColor" stroke-linecap="butt" stroke-linejoin="miter" stroke-width="0.50">
</g>
<g color="black" fill="none" stroke="currentColor" stroke-linecap="butt" stroke-linejoin="miter" stroke-width="0.50">
	<path d="M36.4,11.3 L36.4,396.0 L543.1,396.0 L543.1,11.3 L36.4,11.3 Z  " stroke="black"/></g>
<g color="black" fill="none" stroke="currentColor" stroke-linecap="butt" stroke-linejoin="miter" stroke-width="0.50">
</g>
	<g id="gnuplot_plot_1a"><title>gnuplot_plot_1a</title>
<g color="black" fill="none" stroke="currentColor" stroke-linecap="butt" stroke-linejoin="miter" stroke-width="0.50">
	<path d="M96.7,11.3 L112.4,16.6 L137.7,20.8 L163.1,20.8 L188.4,15.4 L197.2,11.3  " stroke="rgb(  0,   0, 128)"/></g>
	</g>
	<g id="gnuplot_plot_2a"><title>gnuplot_plot_2a</title>
<g color="black" fill="none" stroke="currentColor" stroke-linecap="butt" stroke-linejoin="miter" stroke-width="0.50">
	<path d="M382.3,396.0 L391.1,391.9 L416.4,386.5 L441.8,386.5 L467.1,390.7 L482.8,396.0  " stroke="rgb(  0,   0, 128)"/></g>
	</g>
	<g id="gnuplot_plot_3a"><title>gnuplot_plot_3a</title>
<g color="black" fill="none" stroke="currentColor" stroke-linecap="butt" stroke-linejoin="miter" stroke-width="0.50">
	<path d="M36.4,350.2 L43.4,338.3 L48.9,319.1 L48.9,299.8 L41.8,280.6 L36.4,273.9  " stroke="rgb(  0,   0, 128)"/></g>
	</g>
	<g id="gnuplot_plot_4a"><title>gnuplot_plot_4a</title>
<g color="black" fill="none" stroke="currentColor" stroke-linecap="butt" stroke-linejoin="miter" stroke-width="0.50">
	<path d="M543.1,133.4 L537.7,126.7 L530.6,107.5 L530.6,88.2 L536.1,69.0 L543.1,57.1  " stroke="rgb(  0,   0, 128)"/></g>
	</g>
	<g id="gnuplot_plot_5a"><title>gnuplot_plot_5a</title>
<g color="black" fill="none" stroke="currentColor" stroke-linecap="butt" stroke-linejoin="miter" stroke-width="0.50">
	<path d="M77.6,11.3 L87.1,16.4 L112.4,25.2 L137.7,30.3 L141.6,30.5 L163.1,32.1 L173.8,30.5 L188.4,28.6   L213.7,18.3 L222.7,11.3  " stroke="rgb(  0,   0, 241)"/></g>
	</g>
	<g id="gnuplot_plot_6a"><title>gnuplot_plot_6a</title>
<g color="black" fill="none" stroke="currentColor" stroke-linecap="butt" stroke-linejoin="miter" stroke-width="0.50">
	<path d="M356.8,396.0 L365.8,389.0 L391.1,378.7 L405.7,376.8 L416.4,375.2 L437.9,376.8 L441.8,377.0 L467.1,382.1   L492.4,390.9 L501.9,396.0  " stroke="rgb(  0,   0, 241)"/></g>
	</g>
	<g id="gnuplot_plot_7a"><title>gnuplot_plot_7a</title>
<g color="black" fill="none" stroke="currentColor" stroke-linecap="butt" stroke-linejoin="miter" stroke-width="0.50">
	<path d="M36.4,364.7 L43.1,357.5 L54.8,338.3 L61.5,319.1 L61.7,316.1 L63.8,299.8 L61.7,291.7 L59.2,280.6   L45.6,261.4 L36.4,254.6  " stroke="rgb(  0,   0, 241)"/></g>
	</g>
	<g id="gnuplot_plot_8a"><title>gnuplot_plot_8a</title>
<g color="black" fill="none" stroke="currentColor" stroke-linecap="butt" stroke-linejoin="miter" stroke-width="0.50">
	<path d="M543.1,152.7 L533.9,145.9 L520.3,126.7 L517.8,115.6 L515.7,107.5 L517.8,91.2 L518.0,88.2 L524.7,69.0   L536.4,49.8 L543.1,42.6  " stroke="rgb(  0,   0, 241)"/></g>
	</g>
	<g id="gnuplot_plot_9a"><title>gnuplot_plot_9a</title>
<g color="black" fill="none" stroke="currentColor" stroke-linecap="butt" stroke-linejoin="miter" stroke-width="0.50">
	<path d="M62.5,11.3 L87.1,24.5 L103.8,30.5 L112.4,35.0 L137.7,42.7 L163.1,46.1 L188.4,44.8 L213.7,36.7   L222.8,30.5 L239.1,17.6 L243.8,11.3  " stroke="rgb(  0,  99, 255)"/></g>
	</g>
	<g id="gnuplot_plot_10a"><title>gnuplot_plot_10a</title>
<g color="black" fill="none" stroke="currentColor" stroke-linecap="butt" stroke-linejoin="miter" stroke-width="0.50">
	<path d="M335.7,396.0 L340.4,389.7 L356.7,376.8 L365.8,370.6 L391.1,362.5 L416.4,361.2 L441.8,364.6 L467.1,372.3   L475.7,376.8 L492.4,382.8 L517.0,396.0  " stroke="rgb(  0,  99, 255)"/></g>
	</g>
	<g id="gnuplot_plot_11a"><title>gnuplot_plot_11a</title>
<g color="black" fill="none" stroke="currentColor" stroke-linecap="butt" stroke-linejoin="miter" stroke-width="0.50">
	<path d="M36.4,376.2 L53.8,357.5 L61.7,344.9 L67.6,338.3 L77.7,319.1 L82.2,299.8 L80.5,280.6 L69.8,261.4   L61.7,254.5 L44.7,242.1 L36.4,238.5  " stroke="rgb(  0,  99, 255)"/></g>
	</g>
	<g id="gnuplot_plot_12a"><title>gnuplot_plot_12a</title>
<g color="black" fill="none" stroke="currentColor" stroke-linecap="butt" stroke-linejoin="miter" stroke-width="0.50">
	<path d="M543.1,168.8 L534.8,165.2 L517.8,152.8 L509.7,145.9 L499.0,126.7 L497.3,107.5 L501.8,88.2 L511.9,69.0   L517.8,62.4 L525.7,49.8 L543.1,31.1  " stroke="rgb(  0,  99, 255)"/></g>
	</g>
	<g id="gnuplot_plot_13a"><title>gnuplot_plot_13a</title>
<g color="black" fill="none" stroke="currentColor" stroke-linecap="butt" stroke-linejoin="miter" stroke-width="0.50">
	<path d="M51.9,11.3 L61.7,18.8 L83.4,30.5 L87.1,33.3 L112.4,46.4 L122.8,49.8 L137.7,56.9 L163.1,63.5   L188.4,65.1 L213.7,60.7 L232.9,49.8 L239.1,45.8 L252.0,30.5 L262.9,11.3  " stroke="rgb(  0, 212, 255)"/></g>
	</g>
	<g id="gnuplot_plot_14a"><title>gnuplot_plot_14a</title>
<g color="black" fill="none" stroke="currentColor" stroke-linecap="butt" stroke-linejoin="miter" stroke-width="0.50">
	<path d="M316.6,396.0 L327.5,376.8 L340.4,361.5 L346.6,357.5 L365.8,346.6 L391.1,342.2 L416.4,343.8 L441.8,350.4   L456.7,357.5 L467.1,360.9 L492.4,374.0 L496.1,376.8 L517.8,388.5 L527.6,396.0  " stroke="rgb(  0, 212, 255)"/></g>
	</g>
	<g id="gnuplot_plot_15a"><title>gnuplot_plot_15a</title>
<g color="black" fill="none" stroke="currentColor" stroke-linecap="butt" stroke-linejoin="miter" stroke-width="0.50">
	<path d="M36.4,384.2 L46.2,376.8 L61.7,360.3 L65.4,357.5 L82.6,338.3 L87.1,330.4 L96.5,319.1 L105.1,299.8   L107.3,280.6 L101.5,261.4 L87.1,246.8 L81.9,242.1 L61.7,232.3 L36.4,224.1  " stroke="rgb(  0, 212, 255)"/></g>
	</g>
	<g id="gnuplot_plot_16a"><title>gnuplot_plot_16a</title>
<g color="black" fill="none" stroke="currentColor" stroke-linecap="butt" stroke-linejoin="miter" stroke-width="0.50">
	<path d="M543.1,183.2 L517.8,175.0 L497.6,165.2 L492.4,160.5 L478.0,145.9 L472.2,126.7 L474.4,107.5 L483.0,88.2   L492.4,76.9 L496.9,69.0 L514.1,49.8 L517.8,47.0 L533.3,30.5 L543.1,23.1  " stroke="rgb(  0, 212, 255)"/></g>
	</g>
	<g id="gnuplot_plot_17a"><title>gnuplot_plot_17a</title>
<g color="black" fill="none" stroke="currentColor" stroke-linecap="butt" stroke-linejoin="miter" stroke-width="0.50">
	<path d="M41.6,11.3 L61.7,26.6 L69.0,30.5 L87.1,44.3 L97.6,49.8 L112.4,61.0 L128.6,69.0 L137.7,75.9   L163.1,87.5 L166.3,88.2 L188.4,96.6 L213.7,98.9 L239.1,92.1 L244.2,88.2 L263.3,69.0 L264.4,67.5   L272.2,49.8 L277.5,30.5 L280.8,11.3  " stroke="rgb( 71, 255, 184)"/></g>
	</g>
	<g id="gnuplot_plot_18a"><title>gnuplot_plot_18a</title>
<g color="black" fill="none" stroke="currentColor" stroke-linecap="butt" stroke-linejoin="miter" stroke-width="0.50">
	<path d="M298.7,396.0 L302.0,376.8 L307.3,357.5 L315.1,339.8 L316.2,338.3 L335.3,319.1 L340.4,315.2 L365.8,308.4   L391.1,310.7 L413.2,319.1 L416.4,319.8 L441.8,331.4 L450.9,338.3 L467.1,346.3 L481.9,357.5 L492.4,363.0   L510.5,376.8 L517.8,380.7 L537.9,396.0  " stroke="rgb( 71, 255, 184)"/></g>
	</g>
	<g id="gnuplot_plot_19a"><title>gnuplot_plot_19a</title>
<g color="black" fill="none" stroke="currentColor" stroke-linecap="butt" stroke-linejoin="miter" stroke-width="0.50">
	<path d="M36.4,392.1 L56.6,376.8 L61.7,371.3 L79.8,357.5 L87.1,349.5 L101.9,338.3 L112.4,326.0 L121.5,319.1   L136.8,299.8 L137.7,297.4 L148.8,280.6 L151.8,261.4 L142.8,242.1 L137.7,238.3 L112.4,223.7 L110.4,222.9   L87.1,217.0 L61.7,213.0 L36.4,210.4  " stroke="rgb( 71, 255, 184)"/></g>
	</g>
	<g id="gnuplot_plot_20a"><title>gnuplot_plot_20a</title>
<g color="black" fill="none" stroke="currentColor" stroke-linecap="butt" stroke-linejoin="miter" stroke-width="0.50">
	<path d="M543.1,196.9 L517.8,194.3 L492.4,190.3 L469.1,184.4 L467.1,183.6 L441.8,169.0 L436.7,165.2 L427.7,145.9   L430.7,126.7 L441.8,109.9 L442.7,107.5 L458.0,88.2 L467.1,81.3 L477.6,69.0 L492.4,57.8 L499.7,49.8   L517.8,36.0 L522.9,30.5 L543.1,15.2  " stroke="rgb( 71, 255, 184)"/></g>
	</g>
	<g id="gnuplot_plot_21a"><title>gnuplot_plot_21a</title>
<g color="black" fill="none" stroke="currentColor" stroke-linecap="butt" stroke-linejoin="miter" stroke-width="0.50">
	<path d="M41.6,396.0 L61.7,380.7 L69.0,376.8 L87.1,363.0 L97.6,357.5 L112.4,346.3 L128.6,338.3 L137.7,331.4   L163.1,319.8 L166.3,319.1 L188.4,310.7 L213.7,308.4 L239.1,315.2 L244.2,319.1 L263.3,338.3 L264.4,339.8   L272.2,357.5 L277.5,376.8 L280.8,396.0  " stroke="rgb(184, 255,  71)"/></g>
	</g>
	<g id="gnuplot_plot_22a"><title>gnuplot_plot_22a</title>
<g color="black" fill="none" stroke="currentColor" stroke-linecap="butt" stroke-linejoin="miter" stroke-width="0.50">
	<path d="M298.7,11.3 L302.0,30.5 L307.3,49.8 L315.1,67.5 L316.2,69.0 L335.3,88.2 L340.4,92.1 L365.8,98.9   L391.1,96.6 L413.2,88.2 L416.4,87.5 L441.8,75.9 L450.9,69.0 L467.1,61.0 L481.9,49.8 L492.4,44.3   L510.5,30.5 L517.8,26.6 L537.9,11.3  " stroke="rgb(184, 255,  71)"/></g>
	</g>
	<g id="gnuplot_plot_23a"><title>gnuplot_plot_23a</title>
<g color="black" fill="none" stroke="currentColor" stroke-linecap="butt" stroke-linejoin="miter" stroke-width="0.50">
	<path d="M543.1,392.1 L522.9,376.8 L517.8,371.3 L499.7,357.5 L492.4,349.5 L477.6,338.3 L467.1,326.0 L458.0,319.1   L442.7,299.8 L441.8,297.4 L430.7,280.6 L427.7,261.4 L436.7,242.1 L441.8,238.3 L467.1,223.7 L469.1,222.9   L492.4,217.0 L517.8,213.0 L543.1,210.4  " stroke="rgb(184, 255,  71)"/></g>
	</g>
	<g id="gnuplot_plot_24a"><title>gnuplot_plot_24a</title>
<g color="black" fill="none" stroke="currentColor" stroke-linecap="butt" stroke-linejoin="miter" stroke-width="0.50">
	<path d="M36.4,196.9 L61.7,194.3 L87.1,190.3 L110.4,184.4 L112.4,183.6 L137.7,169.0 L142.8,165.2 L151.8,145.9   L148.8,126.7 L137.7,109.9 L136.8,107.5 L121.5,88.2 L112.4,81.3 L101.9,69.0 L87.1,57.8 L79.8,49.8   L61.7,36.0 L56.6,30.5 L36.4,15.2  " stroke="rgb(184, 255,  71)"/></g>
	</g>
	<g id="gnuplot_plot_25a"><title>gnuplot_plot_25a</title>
<g color="black" fill="none" stroke="currentColor" stroke-linecap="butt" stroke-linejoin="miter" stroke-width="0.50">
	<path d="M51.9,396.0 L61.7,388.5 L83.4,376.8 L87.1,374.0 L112.4,360.9 L122.8,357.5 L137.7,350.4 L163.1,343.8   L188.4,342.2 L213.7,346.6 L232.9,357.5 L239.1,361.5 L252.0,376.8 L262.9,396.0  " stroke="rgb(255, 212,   0)"/></g>
	</g>
	<g id="gnuplot_plot_26a"><title>gnuplot_plot_26a</title>
<g color="black" fill="none" stroke="currentColor" stroke-linecap="butt" stroke-linejoin="miter" stroke-width="0.50">
	<path d="M316.6,11.3 L327.5,30.5 L340.4,45.8 L346.6,49.8 L365.8,60.7 L391.1,65.1 L416.4,63.5 L441.8,56.9   L456.7,49.8 L467.1,46.4 L492.4,33.3 L496.1,30.5 L517.8,18.8 L527.6,11.3  " stroke="rgb(255, 212,   0)"/></g>
	</g>
	<g id="gnuplot_plot_27a"><title>gnuplot_plot_27a</title>
<g color="black" fill="none" stroke="currentColor" stroke-linecap="butt" stroke-linejoin="miter" stroke-width="0.50">
	<path d="M543.1,384.2 L533.3,376.8 L517.8,360.3 L514.1,357.5 L496.9,338.3 L492.4,330.4 L483.0,319.1 L474.4,299.8   L472.2,280.6 L478.0,261.4 L492.4,246.8 L497.6,242.1 L517.8,232.3 L543.1,224.1  " stroke="rgb(255, 212,   0)"/></g>
	</g>
	<g id="gnuplot_plot_28a"><title>gnuplot_plot_28a</title>
<g color="black" fill="none" stroke="currentColor" stroke-linecap="butt" stroke-linejoin="miter" stroke-width="0.50">
	<path d="M36.4,183.2 L61.7,175.0 L81.9,165.2 L87.1,160.5 L101.5,145.9 L107.3,126.7 L105.1,107.5 L96.5,88.2   L87.1,76.9 L82.6,69.0 L65.4,49.8 L61.7,47.0 L46.2,30.5 L36.4,23.1  " stroke="rgb(255, 212,   0)"/></g>
	</g>
	<g id="gnuplot_plot_29a"><title>gnuplot_plot_29a</title>
<g color="black" fill="none" stroke="currentColor" stroke-linecap="butt" stroke-linejoin="miter" stroke-width="0.50">
	<path d="M62.5,396.0 L87.1,382.8 L103.8,376.8 L112.4,372.3 L137.7,364.6 L163.1,361.2 L188.4,362.5 L213.7,370.6   L222.8,376.8 L239.1,389.7 L243.8,396.0  " stroke="rgb(255,  99,   0)"/></g>
	</g>
	<g id="gnuplot_plot_30a"><title>gnuplot_plot_30a</title>
<g color="black" fill="none" stroke="currentColor" stroke-linecap="butt" stroke-linejoin="miter" stroke-width="0.50">
	<path d="M335.7,11.3 L340.4,17.6 L356.7,30.5 L365.8,36.7 L391.1,44.8 L416.4,46.1 L441.8,42.7 L467.1,35.0   L475.7,30.5 L492.4,24.5 L517.0,11.3  " stroke="rgb(255,  99,   0)"/></g>
	</g>
	<g id="gnuplot_plot_31a"><title>gnuplot_plot_31a</title>
<g color="black" fill="none" stroke="currentColor" stroke-linecap="butt" stroke-linejoin="miter" stroke-width="0.50">
	<path d="M543.1,376.2 L525.7,357.5 L517.8,344.9 L511.9,338.3 L501.8,319.1 L497.3,299.8 L499.0,280.6 L509.7,261.4   L517.8,254.5 L534.8,242.1 L543.1,238.5  " stroke="rgb(255,  99,   0)"/></g>
	</g>
	<g id="gnuplot_plot_32a"><title>gnuplot_plot_32a</title>
<g color="black" fill="none" stroke="currentColor" stroke-linecap="butt" stroke-linejoin="miter" stroke-width="0.50">
	<path d="M36.4,168.8 L44.7,165.2 L61.7,152.8 L69.8,145.9 L80.5,126.7 L82.2,107.5 L77.7,88.2 L67.6,69.0   L61.7,62.4 L53.8,49.8 L36.4,31.1  " stroke="rgb(255,  99,   0)"/></g>
	</g>
	<g id="gnuplot_plot_33a"><title>gnuplot_plot_33a</title>
<g color="black" fill="none" stroke="currentColor" stroke-linecap="butt" stroke-linejoin="miter" stroke-width="0.50">
	<path d="M77.6,396.0 L87.1,390.9 L112.4,382.1 L137.7,377.0 L141.6,376.8 L163.1,375.2 L173.8,376.8 L188.4,378.7   L213.7,389.0 L222.7,396.0  " stroke="rgb(241,   0,   0)"/></g>
	</g>
	<g id="gnuplot_plot_34a"><title>gnuplot_plot_34a</title>
<g color="black" fill="none" stroke="currentColor" stroke-linecap="butt" stroke-linejoin="miter" stroke-width="0.50">
	<path d="M356.8,11.3 L365.8,18.3 L391.1,28.6 L405.7,30.5 L416.4,32.1 L437.9,30.5 L441.8,30.3 L467.1,25.2   L492.4,16.4 L501.9,11.3  " stroke="rgb(241,   0,   0)"/></g>
	</g>
	<g id="gnuplot_plot_35a"><title>gnuplot_plot_35a</title>
<g color="black" fill="none" stroke="currentColor" stroke-linecap="butt" stroke-linejoin="miter" stroke-width="0.50">
	<path d="M543.1,364.7 L536.4,357.5 L524.7,338.3 L518.0,319.1 L517.8,316.1 L515.7,299.8 L517.8,291.7 L520.3,280.6   L533.9,261.4 L543.1,254.6  " stroke="rgb(241,   0,   0)"/></g>
	</g>
	<g id="gnuplot_plot_36a"><title>gnuplot_plot_36a</title>
<g color="black" fill="none" stroke="currentColor" stroke-linecap="butt" stroke-linejoin="miter" stroke-width="0.50">
	<path d="M36.4,152.7 L45.6,145.9 L59.2,126.7 L61.7,115.6 L63.8,107.5 L61.7,91.2 L61.5,88.2 L54.8,69.0   L43.1,49.8 L36.4,42.6  " stroke="rgb(241,   0,   0)"/></g>
	</g>
	<g id="gnuplot_plot_37a"><title>gnuplot_plot_37a</title>
<g color="black" fill="none" stroke="currentColor" stroke-linecap="butt" stroke-linejoin="miter" stroke-width="0.50">
	<path d="M96.7,396.0 L112.4,390.7 L137.7,386.5 L163.1,386.5 L188.4,391.9 L197.2,396.0  " stroke="rgb(128,   0,   0)"/></g>
	</g>
	<g id="gnuplot_plot_38a"><title>gnuplot_plot_38a</title>
<g color="black" fill="none" stroke="currentColor" stroke-linecap="butt" stroke-linejoin="miter" stroke-width="0.50">
	<path d="M382.3,11.3 L391.1,15.4 L416.4,20.8 L441.8,20.8 L467.1,16.6 L482.8,11.3  " stroke="rgb(128,   0,   0)"/></g>
	</g>
	<g id="gnuplot_plot_39a"><title>gnuplot_plot_39a</title>
<g color="black" fill="none" stroke="currentColor" stroke-linecap="butt" stroke-linejoin="miter" stroke-width="0.50">
	<path d="M543.1,350.2 L536.1,338.3 L530.6,319.1 L530.6,299.8 L537.7,280.6 L543.1,273.9  " stroke="rgb(128,   0,   0)"/></g>
	</g>
	<g id="gnuplot_plot_40a"><title>gnuplot_plot_40a</title>
<g color="black" fill="none" stroke="currentColor" stroke-linecap="butt" stroke-linejoin="miter" stroke-width="0.50">
	<path d="M36.4,133.4 L41.8,126.7 L48.9,107.5 L48.9,88.2 L43.4,69.0 L36.4,57.1  " stroke="rgb(128,   0,   0)"/></g>
	</g>
<g color="white" fill="none" stroke="rgb(128,   0,   0)" stroke-linecap="butt" stroke-linejoin="miter" stroke-width="2.00">
</g>
<g color="black" fill="none" stroke="currentColor" stroke-linecap="butt" stroke-linejoin="miter" stroke-width="2.00">
</g>
<g color="black" fill="none" stroke="black" stroke-linecap="butt" stroke-linejoin="miter" stroke-width="0.50">
</g>
<g color="black" fill="none" stroke="currentColor" stroke-linecap="butt" stroke-linejoin="miter" stroke-width="0.50">
</g>
</g>
</svg>